<svg width="1929" height="718" xmlns="http://www.w3.org/2000/svg" xmlns:xlink="http://www.w3.org/1999/xlink" xml:space="preserve" overflow="hidden"><g transform="translate(-114 -203)"><path d="M51.5625-10.3124 314.271-10.3122 314.271 10.3128 51.5625 10.3126ZM61.875 30.9376 0 0 61.875-30.9374ZM303.958-30.9372 365.833 0.000360892 303.958 30.9378Z" transform="matrix(1 0 0 -1 537.5 458.5)"/><path d="M1067 623C975.873 623 902 549.127 902 458 902 366.873 975.873 293 1067 293 1158.13 293 1232 366.873 1232 458 1232 549.127 1158.13 623 1067 623Z" fill="#F4E200" fill-rule="evenodd"/><path d="M372 626C280.873 626 207 552.127 207 461 207 369.873 280.873 296 372 296 463.127 296 537 369.873 537 461 537 552.127 463.127 626 372 626Z" fill="#40ED4B" fill-rule="evenodd"/><path d="M1765 626C1673.87 626 1600 552.127 1600 461 1600 369.873 1673.87 296 1765 296 1856.13 296 1930 369.873 1930 461 1930 552.127 1856.13 626 1765 626Z" fill="#F40061" fill-rule="evenodd"/><path d="M10.3121-0.0857843 12.9447 316.371-7.67962 316.543-10.3121 0.0857843ZM33.4832 305.887 3.06145 368.017-28.3897 306.402Z" transform="matrix(1.83697e-16 1 1 -1.83697e-16 1232.5 458.5)"/><text font-family="Arial,Arial_MSFontService,sans-serif" font-weight="400" font-size="92" transform="matrix(1 0 0 1 305.418 790)">OK</text><text font-family="Arial,Arial_MSFontService,sans-serif" font-weight="400" font-size="92" transform="matrix(1 0 0 1 840.548 790)">Processing</text><text font-family="Arial,Arial_MSFontService,sans-serif" font-weight="400" font-size="92" transform="matrix(1 0 0 1 1670.91 734)">Help </text><text font-family="Arial,Arial_MSFontService,sans-serif" font-weight="400" font-size="92" transform="matrix(1 0 0 1 1543.72 844)">Requested</text><path d="M1756.04 296.5 1756.04 214 1766.35 224.313 125.006 224.313 135.318 214 135.318 461.501 125.006 451.188 155.938 451.188 155.938 471.813 125.006 471.813C119.31 471.813 114.693 467.196 114.693 461.501L114.693 214C114.693 208.305 119.31 203.688 125.006 203.688L1766.35 203.688C1772.05 203.688 1776.66 208.305 1776.66 214L1776.66 296.5ZM145.625 430.563 207.5 461.501 145.625 492.438Z"/></g></svg>